<?xml version="1.0" encoding="UTF-8"?>
<svg width="75px" height="17px" viewBox="0 0 75 17" version="1.1" xmlns="http://www.w3.org/2000/svg" xmlns:xlink="http://www.w3.org/1999/xlink">
    <!-- Generator: Sketch 63.1 (92452) - https://sketch.com -->
    <title>Logo</title>
    <desc>Created with Sketch.</desc>
    <g id="Visual" stroke="none" stroke-width="1" fill="none" fill-rule="evenodd">
        <g id="Book-Dark" transform="translate(-30.000000, -48.000000)">
            <g id="Logo" transform="translate(30.000000, 48.000000)">
                <path d="M5.346,15.852 C6.45,15.852 7.38,15.51 8.136,14.826 C8.892,14.142 9.27,13.266 9.27,12.198 C9.27,10.914 8.718,9.954 7.614,9.318 C8.406,8.682 8.802,7.842 8.802,6.798 C8.802,5.766 8.433,4.917 7.695,4.251 C6.957,3.585 6.048,3.252 4.968,3.252 L4.968,3.252 L3.51008111e-12,3.252 L3.51008111e-12,15.852 L5.346,15.852 Z M4.968,8.346 L2.484,8.346 L2.484,5.574 L4.968,5.574 C5.364,5.574 5.688,5.706 5.94,5.97 C6.192,6.234 6.318,6.564 6.318,6.96 C6.318,7.356 6.189,7.686 5.931,7.95 C5.673,8.214 5.352,8.346 4.968,8.346 L4.968,8.346 Z M5.346,13.53 L2.484,13.53 L2.484,10.56 L5.346,10.56 C5.766,10.56 6.114,10.701 6.39,10.983 C6.666,11.265 6.804,11.616 6.804,12.036 C6.804,12.468 6.666,12.825 6.39,13.107 C6.114,13.389 5.766,13.53 5.346,13.53 L5.346,13.53 Z M18.348,16.104 C20.172,16.104 21.72,15.474 22.992,14.214 C24.264,12.942 24.9,11.388 24.9,9.552 C24.9,7.716 24.264,6.165 22.992,4.899 C21.72,3.633 20.172,3 18.348,3 C16.524,3 14.979,3.633 13.713,4.899 C12.447,6.165 11.814,7.716 11.814,9.552 C11.814,11.388 12.447,12.939 13.713,14.205 C14.979,15.471 16.524,16.104 18.348,16.104 Z M18.348,13.674 C17.196,13.674 16.23,13.29 15.45,12.522 C14.67,11.742 14.28,10.752 14.28,9.552 C14.28,8.352 14.67,7.362 15.45,6.582 C16.23,5.802 17.196,5.412 18.348,5.412 C19.5,5.412 20.466,5.802 21.246,6.582 C22.026,7.362 22.416,8.352 22.416,9.552 C22.416,10.752 22.026,11.739 21.246,12.513 C20.466,13.287 19.5,13.674 18.348,13.674 Z M34.104,13.104 C35.928,13.104 37.476,12.474 38.748,11.214 C40.02,9.942 40.656,8.388 40.656,6.552 C40.656,4.716 40.02,3.165 38.748,1.899 C37.476,0.633 35.928,1.3500312e-13 34.104,1.3500312e-13 C32.28,1.3500312e-13 30.735,0.633 29.469,1.899 C28.203,3.165 27.57,4.716 27.57,6.552 C27.57,8.388 28.203,9.939 29.469,11.205 C30.735,12.471 32.28,13.104 34.104,13.104 Z M34.104,10.674 C32.952,10.674 31.986,10.29 31.206,9.522 C30.426,8.742 30.036,7.752 30.036,6.552 C30.036,5.352 30.426,4.362 31.206,3.582 C31.986,2.802 32.952,2.412 34.104,2.412 C35.256,2.412 36.222,2.802 37.002,3.582 C37.782,4.362 38.172,5.352 38.172,6.552 C38.172,7.752 37.782,8.739 37.002,9.513 C36.222,10.287 35.256,10.674 34.104,10.674 Z M46.386,15.852 L46.386,9.948 L50.886,15.852 L53.748,15.852 L48.906,9.372 L53.568,3.252 L50.706,3.252 L46.386,8.814 L46.386,3.252 L43.902,3.252 L43.902,15.852 L46.386,15.852 Z M63.762,15.852 L63.762,13.476 L58.956,13.476 L58.956,3.252 L56.472,3.252 L56.472,15.852 L63.762,15.852 Z M70.68,15.852 L70.68,10.938 L75,3.252 L72.192,3.252 L69.456,8.508 L66.72,3.252 L63.912,3.252 L68.214,10.938 L68.214,15.852 L70.68,15.852 Z" id="BOOKLY" fill="#FFFFFF" fill-rule="nonzero"></path>
                <line x1="29.83" y1="15.852" x2="38.83" y2="15.852" id="Path-72" stroke="#FFFFFF" stroke-width="1.5" stroke-linecap="round"></line>
            </g>
        </g>
    </g>
</svg>